<!DOCTYPE svg PUBLIC "-//W3C//DTD SVG 20010904//EN" "http://www.w3.org/TR/2001/REC-SVG-20010904/DTD/svg10.dtd">
<svg version="1.0" xmlns="http://www.w3.org/2000/svg" width="512px" height="512px" viewBox="0 0 5120 5120" preserveAspectRatio="xMidYMid meet">
<g id="layer101" fill="#152557" stroke="none">
 <path d="M0 2560 l0 -2560 2560 0 2560 0 0 2560 0 2560 -2560 0 -2560 0 0 -2560z"/>
 </g>
<g id="layer102" fill="#1e316b" stroke="none">
 <path d="M0 2560 l0 -2560 2560 0 2560 0 0 2560 0 2560 -2560 0 -2560 0 0 -2560z m747 325 c0 -8 -4 -12 -9 -9 -5 3 -6 10 -3 15 9 13 12 11 12 -6z m76 -50 c31 -23 33 -30 11 -39 -9 -3 -12 -2 -9 4 4 6 -10 26 -29 45 -20 19 -36 38 -36 42 0 4 8 -2 18 -13 10 -10 31 -28 45 -39z m42 -55 c3 -5 1 -10 -4 -10 -6 0 -11 5 -11 10 0 6 2 10 4 10 3 0 8 -4 11 -10z m30 -20 c3 -5 4 -10 1 -10 -3 0 -8 5 -11 10 -3 6 -4 10 -1 10 3 0 8 -4 11 -10z m26 -37 c13 -16 12 -17 -3 -4 -10 7 -18 15 -18 17 0 8 8 3 21 -13z m49 -48 c13 -14 21 -25 18 -25 -2 0 -15 11 -28 25 -13 14 -21 25 -18 25 2 0 15 -11 28 -25z m30 -40 c0 -2 -6 -8 -13 -14 -10 -8 -14 -7 -14 2 0 8 6 14 14 14 7 0 13 -1 13 -2z m149 -160 c31 -33 52 -56 47 -52 -5 4 -21 0 -35 -8 -25 -16 -26 -16 -5 2 21 18 21 18 -54 100 -42 45 -78 80 -82 78 -3 -2 -6 5 -7 15 -1 12 12 3 40 -28 22 -26 66 -74 96 -107z m-164 105 c10 -11 16 -20 13 -20 -3 0 -13 9 -23 20 -10 11 -16 20 -13 20 3 0 13 -9 23 -20z m45 -4 c0 -3 -5 -8 -12 -12 -7 -4 -8 -3 -4 4 7 12 16 16 16 8z m40 -80 c0 -3 -5 -8 -12 -12 -7 -4 -8 -3 -4 4 7 12 16 16 16 8z m34 -4 c3 -5 -1 -9 -9 -9 -8 0 -12 4 -9 9 3 4 7 8 9 8 2 0 6 -4 9 -8z m146 -127 c13 -14 21 -25 18 -25 -2 0 -15 11 -28 25 -13 14 -21 25 -18 25 2 0 15 -11 28 -25z m75 -85 c10 -11 16 -20 13 -20 -3 0 -13 9 -23 20 -10 11 -16 20 -13 20 3 0 13 -9 23 -20z m-30 -30 c3 -5 4 -10 1 -10 -3 0 -8 5 -11 10 -3 6 -4 10 -1 10 3 0 8 -4 11 -10z m124 -83 c-2 -3 -15 10 -28 27 l-24 31 28 -27 c16 -15 27 -29 24 -31z m-39 8 c14 -19 14 -19 -2 -6 -10 7 -18 18 -18 24 0 6 1 8 3 6 1 -2 9 -13 17 -24z m-584 -27 c3 -4 -1 -5 -10 -4 -8 1 -18 5 -22 8 -3 4 1 5 10 4 8 -1 18 -5 22 -8z m-46 -14 c0 -8 -19 -13 -24 -6 -3 5 1 9 9 9 8 0 15 -2 15 -3z m1527 -31 c-4 -3 -7 0 -7 7 0 7 3 10 7 7 3 -4 3 -10 0 -14z m30 0 c-4 -3 -7 0 -7 7 0 7 3 10 7 7 3 -4 3 -10 0 -14z m-1540 0 c-4 -3 -10 -3 -14 0 -3 4 0 7 7 7 7 0 10 -3 7 -7z m1493 -3 c0 -5 15 -26 32 -47 19 -22 23 -30 9 -18 -32 27 -65 75 -52 75 6 0 11 -4 11 -10z m-1466 -36 c3 -9 10 -13 15 -9 5 3 12 1 15 -4 15 -24 -14 -17 -40 10 -17 18 -22 28 -12 24 9 -4 19 -13 22 -21z m61 4 c4 -3 2 -9 -3 -12 -5 -3 -15 1 -21 8 -10 11 -9 14 3 12 9 -1 18 -5 21 -8z m-3 -41 c-14 -16 11 -52 29 -41 8 5 10 3 4 -5 -4 -8 6 -27 26 -50 19 -20 8 -11 -24 22 -47 47 -56 61 -46 73 6 8 14 14 16 14 3 0 1 -6 -5 -13z m1533 -37 c3 -5 4 -10 1 -10 -3 0 -8 5 -11 10 -3 6 -4 10 -1 10 3 0 8 -4 11 -10z m0 -22 c5 4 5 1 1 -6 -6 -10 -11 -10 -22 -1 -8 6 -14 14 -14 16 0 3 6 0 13 -6 8 -6 18 -7 22 -3z m-1440 -8 c3 -5 4 -10 1 -10 -3 0 -8 5 -11 10 -3 6 -4 10 -1 10 3 0 8 -4 11 -10z m1452 -27 c-4 -3 -7 0 -7 7 0 7 3 10 7 7 3 -4 3 -10 0 -14z m34 -30 c13 -16 12 -17 -3 -4 -10 7 -18 15 -18 17 0 8 8 3 21 -13z m-1439 -57 c9 -18 8 -19 -3 -6 -8 8 -21 20 -29 27 -13 11 -13 12 3 7 10 -4 22 -16 29 -28z m1469 17 c13 -16 12 -17 -3 -4 -10 7 -18 15 -18 17 0 8 8 3 21 -13z m-1431 -27 c0 -3 -5 -8 -12 -12 -7 -4 -8 -3 -4 4 7 12 16 16 16 8z m1477 -10 c-1 -6 6 -10 15 -8 9 1 19 -1 22 -6 9 -15 -34 -6 -50 10 -13 13 -13 15 0 15 8 0 14 -5 13 -11z m-1447 -48 c0 -4 15 -24 33 -45 17 -20 27 -34 20 -30 -6 4 -31 30 -54 58 -27 32 -35 46 -21 38 12 -8 22 -17 22 -21z m27 -5 c-4 -3 -7 0 -7 7 0 7 3 10 7 7 3 -4 3 -10 0 -14z m1543 -90 c0 -8 -9 0 -50 45 l-45 47 48 -45 c26 -24 47 -45 47 -47z m-25 67 c3 -5 4 -10 1 -10 -3 0 -8 5 -11 10 -3 6 -4 10 -1 10 3 0 8 -4 11 -10z m-1412 -129 c-5 -7 -53 41 -53 52 0 5 12 -3 28 -19 15 -16 26 -31 25 -33z m1619 -123 c5 1 7 -2 3 -8 -7 -11 -73 37 -74 55 -1 5 -22 32 -48 60 -27 28 -13 15 31 -29 43 -45 83 -80 88 -78z m-1490 -3 c3 4 5 -2 4 -12 0 -10 5 -17 12 -15 8 1 11 -2 8 -7 -3 -5 15 -28 41 -51 27 -24 38 -38 27 -32 -12 6 -59 52 -105 103 -96 104 -129 150 -47 65 30 -31 57 -54 60 -51z m1438 101 c0 -3 -5 -8 -12 -12 -7 -4 -8 -3 -4 4 7 12 16 16 16 8z m30 0 c0 -3 -5 -8 -12 -12 -7 -4 -8 -3 -4 4 7 12 16 16 16 8z m84 -97 c-3 -5 -10 -7 -15 -3 -5 3 -7 10 -3 15 3 5 10 7 15 3 5 -3 7 -10 3 -15z m-1517 -6 c-4 -3 -7 0 -7 7 0 7 3 10 7 7 3 -4 3 -10 0 -14z m1498 -43 c-3 -5 -12 -10 -18 -10 -7 0 -6 4 3 10 19 12 23 12 15 0z m-1450 -20 c3 -5 4 -10 1 -10 -3 0 -8 5 -11 10 -3 6 -4 10 -1 10 3 0 8 -4 11 -10z m1475 -25 c13 -14 21 -25 18 -25 -2 0 -15 11 -28 25 -13 14 -21 25 -18 25 2 0 15 -11 28 -25z m25 5 c10 -11 16 -20 13 -20 -3 0 -13 9 -23 20 -10 11 -16 20 -13 20 3 0 13 -9 23 -20z"/>
 </g>
<g id="layer103" fill="#075e7d" stroke="none">
 <path d="M0 2560 l0 -2560 2560 0 2560 0 0 2560 0 2560 -2560 0 -2560 0 0 -2560z m2545 830 c3 -5 4 -10 1 -10 -3 0 -8 5 -11 10 -3 6 -4 10 -1 10 3 0 8 -4 11 -10z m-250 -532 c50 -55 95 -107 100 -115 6 -8 30 -36 55 -61 49 -51 115 -123 225 -247 103 -116 168 -188 185 -205 9 -8 28 -30 43 -48 l27 -34 0 -405 c-1 -403 -1 -405 -21 -387 -12 11 -17 25 -13 38 4 17 3 18 -6 6 -9 -13 -18 -7 -55 35 -24 28 -43 57 -42 65 1 9 -5 14 -14 12 -19 -3 -73 63 -64 78 3 5 0 7 -7 5 -17 -7 -202 200 -193 215 3 5 0 8 -7 5 -17 -7 -212 211 -202 226 4 8 3 9 -5 5 -7 -4 -31 15 -62 48 -28 31 -56 53 -62 49 -5 -3 -7 -1 -4 4 4 6 7 191 7 412 1 307 4 401 13 400 7 0 53 -46 102 -101z m-1466 -25 c51 -53 90 -102 87 -109 -3 -7 0 -11 7 -8 16 6 111 -102 102 -116 -3 -5 0 -7 8 -5 8 4 69 -57 162 -162 82 -92 160 -181 174 -196 22 -24 23 -29 11 -38 -12 -9 -12 -10 3 -5 12 4 25 -2 38 -16 17 -22 18 -45 18 -433 l0 -410 -65 70 c-35 38 -62 75 -60 81 2 6 -2 11 -9 10 -18 -1 -387 405 -381 420 3 7 0 11 -7 8 -15 -5 -111 102 -103 115 3 5 0 8 -7 7 -6 0 -32 21 -57 48 l-45 49 -3 380 c-1 210 0 387 2 394 11 27 37 10 125 -84z m2848 60 c-4 -3 -7 0 -7 7 0 7 3 10 7 7 3 -4 3 -10 0 -14z m0 -700 c-4 -3 -7 0 -7 7 0 7 3 10 7 7 3 -4 3 -10 0 -14z m-17 -57 c0 -3 -5 -8 -12 -12 -7 -4 -8 -3 -4 4 7 12 16 16 16 8z m-1630 -160 c0 -3 -5 -8 -12 -12 -7 -4 -8 -3 -4 4 7 12 16 16 16 8z m1460 -30 c0 -3 -5 -8 -12 -12 -7 -4 -8 -3 -4 4 7 12 16 16 16 8z m-100 -110 c0 -3 -5 -8 -12 -12 -7 -4 -8 -3 -4 4 7 12 16 16 16 8z"/>
 <path d="M945 2670 c3 -5 8 -10 11 -10 3 0 2 5 -1 10 -3 6 -8 10 -11 10 -3 0 -2 -4 1 -10z"/>
 </g>
<g id="layer104" fill="#07647d" stroke="none">
 <path d="M0 2560 l0 -2560 2560 0 2560 0 0 2560 0 2560 -2560 0 -2560 0 0 -2560z m3763 1117 c-2 -4 1 -6 9 -5 8 2 12 -4 10 -16 -2 -10 1 -15 6 -12 5 3 24 -11 43 -31 19 -20 28 -33 21 -29 -15 9 -12 -15 3 -26 6 -5 5 -12 -5 -17 -8 -6 -11 -14 -6 -18 5 -4 11 -2 13 5 4 10 8 10 21 0 11 -10 10 -5 -3 16 l-19 29 22 -12 c34 -18 50 -52 47 -100 -2 -31 0 -40 7 -30 7 11 11 11 15 1 8 -20 35 -44 42 -37 3 4 -2 11 -12 16 -18 11 -23 29 -7 29 5 0 42 -34 82 -76 40 -42 98 -103 128 -134 74 -78 81 -88 69 -92 -6 -2 -7 -11 -3 -21 5 -15 9 -15 22 -5 13 11 14 10 4 -9 -14 -25 -3 -37 18 -21 12 8 11 8 -5 3 -14 -4 -17 -3 -9 5 6 6 17 8 25 5 15 -6 96 -104 92 -111 -5 -7 -18 -4 -18 4 -1 4 -16 24 -34 44 -26 29 -38 35 -51 28 -11 -6 -21 -5 -27 1 -7 7 -12 6 -16 -3 -4 -11 5 -14 35 -13 28 1 42 -4 49 -16 12 -23 12 -32 -1 -24 -5 3 -10 2 -10 -4 0 -5 5 -13 10 -16 6 -4 7 -11 4 -17 -4 -7 -2 -8 4 -4 6 4 8 14 5 24 -5 13 0 11 20 -7 14 -12 30 -20 36 -16 8 4 11 -99 11 -352 0 -197 3 -368 6 -380 5 -16 2 -23 -8 -23 -10 0 -14 8 -12 26 2 18 -2 24 -11 21 -7 -3 -18 0 -24 6 -8 8 -11 7 -11 -6 0 -10 8 -17 20 -17 11 0 20 -5 20 -11 0 -5 -5 -7 -12 -3 -7 4 -8 3 -4 -4 17 -29 -13 -8 -45 29 -19 23 -44 53 -57 66 -13 14 -21 28 -18 31 4 3 13 -3 22 -14 15 -17 15 -17 0 8 -9 15 -13 35 -9 45 6 16 5 17 -13 3 -10 -8 -16 -10 -12 -6 10 12 -11 38 -24 30 -5 -3 1 -17 13 -30 12 -13 19 -27 15 -31 -4 -4 -18 7 -32 24 -14 18 -42 50 -63 72 -60 62 -101 118 -94 125 4 4 1 5 -7 2 -10 -3 -26 10 -44 37 -20 29 -23 36 -8 24 15 -14 22 -15 28 -6 4 7 3 10 -3 6 -6 -4 -16 0 -23 8 -6 7 -18 11 -26 8 -8 -3 -14 0 -14 6 0 6 6 11 14 11 15 0 32 37 22 47 -3 3 -12 0 -20 -6 -10 -8 -16 -9 -21 -1 -8 13 -25 13 -25 -1 0 -5 5 -7 12 -3 7 5 8 3 3 -6 -5 -9 -4 -11 3 -6 7 4 12 1 12 -8 0 -24 -12 -18 -43 19 -19 23 -24 36 -16 41 7 4 9 3 5 -4 -3 -6 -2 -13 3 -16 13 -8 8 19 -7 37 -9 10 -10 17 -2 22 5 3 10 1 10 -6 0 -7 3 -10 6 -6 3 3 3 11 -1 17 -10 16 -35 -7 -28 -26 4 -10 0 -12 -11 -8 -10 4 -15 13 -12 20 3 8 0 11 -8 8 -7 -3 -20 6 -29 19 -9 13 -23 32 -33 41 -9 9 -13 20 -10 24 4 3 11 0 16 -8 8 -12 10 -12 10 -1 0 8 6 11 16 7 8 -3 12 -2 9 4 -3 5 -21 8 -40 5 -21 -2 -38 1 -45 11 -9 10 -9 14 -1 14 6 0 11 5 11 11 0 6 -6 9 -14 6 -19 -7 -40 18 -30 35 4 7 4 10 -1 6 -4 -4 -16 -3 -27 3 -14 7 -18 17 -14 33 11 44 8 770 -3 774 -6 2 -8 8 -5 14 4 5 28 -14 54 -43 27 -30 46 -57 43 -62z m-1499 23 c5 -8 29 -34 52 -58 40 -40 49 -72 21 -72 -7 0 -7 -4 1 -12 17 -17 15 -29 -3 -22 -8 4 -15 2 -15 -3 0 -6 16 -9 36 -8 39 3 51 10 35 20 -6 3 -11 1 -11 -6 0 -8 -4 -8 -15 1 -21 18 -19 35 3 19 15 -13 16 -12 3 4 -8 9 -10 21 -6 25 4 4 10 0 13 -7 5 -14 27 -40 142 -161 90 -96 120 -132 120 -146 0 -9 4 -13 9 -10 5 3 15 -2 22 -12 12 -15 12 -16 -2 -4 -14 11 -17 9 -21 -13 -5 -22 -3 -23 10 -13 13 11 15 10 9 -5 -6 -16 -3 -18 23 -12 22 5 30 3 30 -7 0 -7 9 -19 20 -26 12 -7 18 -17 15 -22 -3 -6 1 -10 9 -10 9 0 16 -5 16 -11 0 -5 -4 -7 -10 -4 -23 14 -8 -36 15 -51 14 -9 22 -21 18 -28 -3 -6 -2 -7 2 -3 12 11 15 37 4 37 -5 0 -9 5 -9 10 0 6 3 10 8 10 11 -1 77 -92 74 -103 -2 -5 4 -7 12 -4 8 3 17 -1 20 -9 11 -29 7 -744 -4 -744 -7 0 -10 122 -8 369 2 203 1 369 -2 369 -22 -2 -31 4 -26 17 3 8 1 15 -4 15 -6 0 -10 -9 -10 -20 0 -11 7 -20 15 -20 12 0 15 -52 17 -372 2 -205 0 -374 -4 -376 -8 -3 16 -32 25 -32 3 0 3 10 0 22 -4 18 -2 20 5 9 7 -9 11 -174 11 -449 l1 -435 -20 18 c-13 12 -18 26 -14 39 4 17 3 18 -6 6 -9 -13 -18 -7 -55 35 -24 28 -43 57 -42 65 1 9 -5 14 -14 12 -19 -3 -73 63 -64 78 3 5 0 7 -7 5 -17 -7 -202 200 -193 215 3 5 0 8 -7 5 -17 -7 -212 211 -202 226 4 8 3 9 -5 5 -7 -4 -31 15 -62 48 -28 31 -54 54 -57 52 -4 -2 -6 42 -4 97 1 56 3 244 5 417 1 173 6 324 11 334 7 14 6 17 -2 12 -7 -4 -12 -1 -12 8 0 9 8 16 18 17 10 0 12 3 4 6 -10 4 -12 75 -12 330 1 179 -1 328 -4 331 -13 13 -5 23 9 12 17 -14 21 0 5 16 -6 6 -13 21 -15 34 -4 22 -2 21 33 -11 20 -19 41 -41 46 -49z m1699 -253 c-3 -5 -12 -2 -20 6 -9 8 -12 20 -8 27 5 8 11 6 20 -7 7 -10 11 -22 8 -26z m-3134 -614 c51 -53 90 -102 87 -109 -3 -7 0 -11 7 -8 16 6 111 -102 102 -116 -3 -5 0 -7 8 -5 8 4 69 -57 162 -162 82 -92 160 -181 174 -196 22 -24 23 -29 11 -38 -12 -9 -12 -10 3 -5 12 4 25 -2 38 -16 17 -22 18 -45 18 -433 l0 -410 -65 70 c-35 38 -62 75 -60 81 2 6 -2 11 -9 10 -18 -1 -387 405 -381 420 3 7 0 11 -7 8 -15 -5 -111 102 -103 115 3 5 0 8 -7 7 -6 0 -32 21 -57 48 l-45 49 -3 380 c-1 210 0 387 2 394 11 27 37 10 125 -84z m2848 60 c-4 -3 -7 0 -7 7 0 7 3 10 7 7 3 -4 3 -10 0 -14z m305 -205 c-7 -7 -12 -8 -12 -2 0 6 3 14 7 17 3 4 9 5 12 2 2 -3 -1 -11 -7 -17z m-305 -495 c-4 -3 -7 0 -7 7 0 7 3 10 7 7 3 -4 3 -10 0 -14z m739 -10 c-8 -8 -36 5 -36 17 0 7 6 7 21 0 11 -7 18 -14 15 -17z m-756 -47 c0 -3 -5 -8 -12 -12 -7 -4 -8 -3 -4 4 7 12 16 16 16 8z m-1630 -160 c0 -3 -5 -8 -12 -12 -7 -4 -8 -3 -4 4 7 12 16 16 16 8z m1460 -30 c0 -3 -5 -8 -12 -12 -7 -4 -8 -3 -4 4 7 12 16 16 16 8z m-100 -110 c0 -3 -5 -8 -12 -12 -7 -4 -8 -3 -4 4 7 12 16 16 16 8z"/>
 <path d="M3695 3709 c2 -23 39 -37 50 -19 3 5 0 7 -8 4 -10 -3 -14 1 -14 12 1 10 -5 20 -14 22 -11 2 -15 -4 -14 -19z m16 -12 c-10 -9 -11 -8 -5 6 3 10 9 15 12 12 3 -3 0 -11 -7 -18z"/>
 <path d="M3760 3650 c0 -7 3 -10 7 -7 3 4 3 10 0 14 -4 3 -7 0 -7 -7z"/>
 <path d="M3785 3630 c-4 -6 -11 -8 -16 -5 -5 3 -6 0 -3 -8 3 -8 17 -14 34 -13 26 1 27 2 13 19 -19 20 -20 20 -28 7z m15 -4 c0 -3 -5 -8 -12 -12 -7 -4 -8 -3 -4 4 7 12 16 16 16 8z"/>
 <path d="M3926 3397 c3 -10 9 -15 12 -12 3 3 0 11 -7 18 -10 9 -11 8 -5 -6z"/>
 <path d="M4004 3393 c5 -17 3 -21 -11 -19 -10 2 -12 1 -5 -1 6 -3 12 -10 12 -16 0 -7 4 -6 10 3 9 13 13 11 30 -10 11 -15 15 -27 8 -29 -6 -2 -14 2 -18 9 -4 7 -13 9 -19 6 -16 -11 -13 -26 4 -20 8 4 15 1 15 -5 0 -6 5 -11 11 -11 15 0 39 -26 39 -44 0 -8 4 -17 9 -20 4 -3 6 6 3 19 -3 20 -1 24 12 19 9 -3 13 -10 10 -15 -3 -5 0 -9 6 -9 6 0 8 -4 5 -10 -4 -6 1 -7 11 -3 12 4 15 2 12 -8 -3 -8 -16 -13 -32 -11 -14 1 -26 -1 -26 -6 0 -5 15 -9 34 -9 26 0 33 4 32 19 -1 10 -6 22 -12 26 -6 4 -16 16 -22 27 -6 11 -18 20 -28 20 -9 0 -19 7 -21 15 -4 13 -3 13 6 0 7 -9 11 -11 11 -3 0 7 -6 16 -13 20 -6 4 -27 26 -46 47 -22 26 -31 32 -27 19z"/>
 <path d="M4010 3290 c0 -7 3 -10 7 -7 3 4 3 10 0 14 -4 3 -7 0 -7 -7z"/>
 <path d="M4172 3204 c0 -10 -3 -28 -6 -39 -8 -20 -8 -20 9 0 9 12 19 16 23 10 4 -6 16 -17 27 -25 11 -8 7 1 -10 20 -16 19 -33 39 -37 44 -4 5 -7 0 -6 -10z"/>
 <path d="M4165 3131 c-2 -4 11 -7 30 -7 18 0 31 4 29 7 -5 9 -53 8 -59 0z"/>
 <path d="M3745 2950 c3 -5 8 -10 11 -10 2 0 4 5 4 10 0 6 -5 10 -11 10 -5 0 -7 -4 -4 -10z"/>
 <path d="M3725 2930 c3 -5 8 -10 11 -10 3 0 2 5 -1 10 -3 6 -8 10 -11 10 -3 0 -2 -4 1 -10z"/>
 <path d="M3812 2841 c2 -7 7 -12 11 -12 12 1 9 15 -3 20 -7 2 -11 -2 -8 -8z"/>
 <path d="M4036 2622 c-9 -10 -13 -22 -9 -25 10 -11 21 -8 19 6 0 6 4 13 9 14 6 2 10 -10 10 -27 0 -30 17 -55 38 -55 7 -1 11 -6 10 -13 -2 -6 4 -9 12 -6 8 4 15 10 15 15 0 5 1 12 3 16 1 3 -8 8 -20 9 -13 2 -23 -1 -23 -6 0 -7 -5 -6 -13 1 -7 7 -11 24 -9 39 5 37 -19 56 -42 32z m104 -76 c0 -3 -5 -8 -12 -12 -7 -4 -8 -3 -4 4 7 12 16 16 16 8z"/>
 <path d="M4125 2500 c-5 -8 -4 -11 2 -7 6 4 13 0 17 -8 3 -8 12 -15 20 -15 9 0 13 -6 10 -14 -10 -25 16 -28 37 -4 15 16 19 18 15 6 -3 -10 -2 -19 2 -22 4 -2 9 6 10 20 2 29 -5 30 -31 7 -17 -15 -19 -15 -15 -3 4 11 -1 16 -14 17 -11 1 -26 10 -32 19 -10 13 -15 14 -21 4z"/>
 <path d="M4280 2390 c0 -5 5 -10 11 -10 6 0 9 -6 6 -12 -2 -7 0 -21 5 -30 5 -12 5 -18 -2 -18 -13 0 10 -38 27 -44 7 -3 13 1 13 9 0 8 -7 15 -15 15 -8 0 -15 5 -15 11 0 5 6 7 13 3 9 -6 9 -5 0 8 -7 8 -10 18 -6 21 8 8 -17 57 -29 57 -4 0 -8 -4 -8 -10z"/>
 <path d="M4360 2309 c-12 -8 -9 -9 9 -4 21 6 23 4 18 -14 -3 -12 -1 -19 4 -15 14 8 11 44 -3 44 -7 0 -20 -5 -28 -11z"/>
 <path d="M2195 3750 c4 -8 15 -23 23 -32 8 -10 11 -18 6 -18 -5 0 -7 -40 -4 -92 l5 -93 5 83 c3 47 9 81 15 80 6 -1 8 -9 7 -18 -3 -12 -1 -12 8 -3 16 15 4 47 -15 40 -8 -4 -12 -1 -9 6 2 7 -8 24 -22 37 -15 14 -24 18 -19 10z"/>
 <path d="M2240 3626 c0 -8 4 -17 8 -20 4 -2 8 4 8 15 0 10 -4 19 -8 19 -4 0 -8 -6 -8 -14z"/>
 <path d="M2293 3619 c-2 -16 1 -18 11 -10 10 9 15 7 20 -5 4 -9 9 -14 13 -10 6 6 -25 46 -36 46 -4 0 -7 -9 -8 -21z"/>
 <path d="M2406 3498 c1 -18 2 -35 4 -38 1 -3 2 -8 2 -11 -1 -4 12 -5 28 -4 36 3 64 -31 48 -59 -5 -10 -7 -20 -4 -23 3 -4 6 -1 6 6 0 7 5 9 12 5 7 -5 20 -9 30 -9 14 -1 15 2 7 17 -6 11 -16 21 -24 24 -7 3 -26 24 -41 47 -27 40 -28 41 -34 18 -5 -21 -7 -22 -19 -7 -8 9 -9 16 -3 16 12 0 10 26 -4 40 -7 7 -10 -1 -8 -22z m51 -45 c-4 -3 -7 0 -7 7 0 7 3 10 7 7 3 -4 3 -10 0 -14z m63 -74 c0 -6 -4 -7 -10 -4 -5 3 -10 11 -10 16 0 6 5 7 10 4 6 -3 10 -11 10 -16z"/>
 <path d="M2223 3400 c0 -25 2 -35 4 -22 2 12 2 32 0 45 -2 12 -4 2 -4 -23z"/>
 <path d="M2567 3351 c9 -10 9 -18 0 -32 -9 -14 -9 -21 0 -30 9 -9 10 -7 6 11 -5 20 -4 21 15 9 11 -7 18 -17 15 -23 -4 -5 -1 -6 7 -1 10 6 10 11 -3 20 -10 7 -17 17 -17 22 0 6 -8 17 -17 24 -15 11 -16 11 -6 0z"/>
 <path d="M2228 3221 c-12 -96 -10 -207 2 -195 7 7 10 59 8 135 -3 113 -4 118 -10 60z"/>
 <path d="M2725 3160 c3 -5 11 -10 16 -10 6 0 7 5 4 10 -3 6 -11 10 -16 10 -6 0 -7 -4 -4 -10z"/>
 <path d="M2725 3130 c3 -5 8 -10 11 -10 3 0 2 5 -1 10 -3 6 -8 10 -11 10 -3 0 -2 -4 1 -10z"/>
 <path d="M2829 3053 c15 -31 14 -43 -5 -36 -14 5 -14 3 -2 -16 12 -20 14 -20 26 -4 16 22 15 23 -9 53 -17 21 -19 22 -10 3z"/>
 <path d="M2720 3050 c0 -5 7 -10 16 -10 8 0 12 5 9 10 -3 6 -10 10 -16 10 -5 0 -9 -4 -9 -10z"/>
 <path d="M2210 2996 c0 -17 16 -30 23 -19 3 5 -1 14 -9 21 -12 10 -14 10 -14 -2z"/>
 <path d="M2806 2983 c3 -10 14 -20 26 -20 11 -1 19 -1 17 0 -2 1 -14 10 -26 21 -21 17 -21 17 -17 -1z"/>
 <path d="M2248 2930 c32 -29 62 -39 62 -22 0 8 -75 52 -88 52 -4 0 8 -13 26 -30z"/>
 <path d="M2312 2860 c12 -19 28 -27 28 -14 0 7 -27 34 -34 34 -4 0 -1 -9 6 -20z"/>
 <path d="M2363 2873 c4 -3 10 -3 14 0 3 4 0 7 -7 7 -7 0 -10 -3 -7 -7z"/>
 <path d="M2391 2844 c0 -11 3 -14 6 -6 3 7 2 16 -1 19 -3 4 -6 -2 -5 -13z"/>
 <path d="M2356 2822 c-3 -3 -6 -9 -6 -14 0 -11 37 -10 44 1 6 10 -30 22 -38 13z"/>
 <path d="M2405 2760 c-3 -5 1 -10 9 -10 9 0 16 -8 16 -17 0 -13 3 -14 11 -6 7 7 9 19 6 27 -7 18 -33 21 -42 6z"/>
 <path d="M2461 2711 c-12 -8 -12 -11 1 -25 14 -14 16 -13 14 9 0 14 -1 25 -1 25 0 0 -6 -4 -14 -9z"/>
 <path d="M2522 2620 c11 -17 38 -36 38 -26 0 6 -38 46 -44 46 -3 0 -1 -9 6 -20z"/>
 <path d="M2597 2535 c10 -13 21 -25 25 -25 9 0 21 40 14 47 -3 4 -6 -2 -6 -12 0 -17 -1 -17 -18 -2 -27 25 -35 21 -15 -8z"/>
 <path d="M2675 2469 c-4 -5 1 -19 11 -30 16 -18 19 -18 27 -4 5 9 6 19 3 22 -3 4 -6 1 -6 -5 0 -7 -5 -12 -11 -12 -6 0 -9 9 -6 20 5 21 -7 28 -18 9z"/>
 <path d="M2739 2382 c19 -17 38 -29 42 -26 4 2 9 -4 12 -13 2 -10 4 -1 3 19 -1 33 -2 35 -18 22 -10 -10 -18 -12 -23 -5 -3 6 -16 16 -28 22 -13 6 -8 -1 12 -19z"/>
 <path d="M2826 2293 c13 -14 27 -23 31 -19 4 4 -3 16 -17 26 -36 28 -43 24 -14 -7z"/>
 <path d="M2871 2244 c0 -11 3 -14 6 -6 3 7 2 16 -1 19 -3 4 -6 -2 -5 -13z"/>
 <path d="M3945 3460 c3 -5 8 -10 11 -10 3 0 2 5 -1 10 -3 6 -8 10 -11 10 -3 0 -2 -4 1 -10z"/>
 <path d="M945 2670 c3 -5 8 -10 11 -10 3 0 2 5 -1 10 -3 6 -8 10 -11 10 -3 0 -2 -4 1 -10z"/>
 </g>
<g id="layer105" fill="#283d8a" stroke="none">
 <path d="M0 2560 l0 -2560 2560 0 2560 0 0 2560 0 2560 -2560 0 -2560 0 0 -2560z m2255 1142 c-4 -4 -13 1 -20 12 -8 10 -18 15 -24 12 -12 -8 -21 6 -27 39 -4 23 -1 22 37 -16 22 -22 38 -44 34 -47z m1460 28 c-3 -6 -10 -8 -14 -6 -8 6 -8 -30 1 -39 3 -3 11 2 19 12 9 11 10 14 2 9 -7 -4 -13 -3 -13 3 0 24 20 17 55 -19 38 -39 38 -40 20 -60 -10 -11 -16 -20 -14 -21 2 0 18 -2 36 -2 36 -2 65 -23 47 -35 -7 -5 -4 -14 10 -27 12 -11 18 -16 14 -10 -11 12 -10 25 1 25 5 0 24 -18 41 -40 28 -35 30 -43 19 -58 -13 -16 -12 -16 5 -2 17 13 20 13 24 1 3 -8 21 -29 40 -47 19 -17 32 -36 29 -41 -4 -6 0 -19 8 -29 8 -10 15 -14 15 -8 0 5 -6 16 -12 24 -17 19 18 -7 46 -34 18 -18 18 -20 2 -32 -16 -11 -16 -13 3 -19 12 -3 18 -11 15 -17 -5 -7 -2 -8 6 -3 10 6 10 11 -3 20 -9 7 -14 15 -11 18 9 8 75 -64 68 -74 -3 -5 1 -6 9 -3 9 3 30 -14 55 -46 32 -41 39 -56 32 -70 -11 -21 -4 -31 17 -23 12 5 12 7 1 14 -7 5 -8 9 -3 9 23 0 110 -94 100 -109 -4 -7 -20 6 -41 34 -39 50 -41 51 -41 30 0 -8 4 -12 8 -9 13 7 27 -28 24 -59 -2 -15 1 -25 5 -22 5 3 6 13 3 23 -5 12 1 10 22 -8 16 -14 25 -20 21 -13 -8 15 14 29 23 14 4 -6 8 -182 10 -391 2 -347 1 -380 -14 -380 -9 0 -14 4 -11 8 3 5 -1 9 -9 9 -8 0 -11 -5 -8 -10 3 -5 0 -7 -8 -5 -8 3 -13 17 -12 34 1 16 -1 21 -4 12 -2 -10 -8 -18 -13 -18 -12 0 -63 70 -56 77 3 4 -1 17 -9 30 -9 13 -13 27 -10 32 5 10 -25 25 -33 16 -3 -3 4 -15 16 -28 12 -13 22 -26 22 -30 0 -18 -20 -3 -59 43 -42 50 -43 51 -26 78 l16 27 -21 -25 -22 -25 -25 30 c-13 17 -38 48 -55 70 -27 34 -28 36 -6 17 17 -15 28 -20 33 -13 3 6 11 9 16 5 6 -4 6 -11 -2 -20 -10 -12 -9 -13 5 -8 9 3 16 10 16 15 0 5 0 12 0 16 1 10 -29 12 -35 2 -4 -5 -15 0 -27 10 -11 11 -26 17 -34 14 -8 -3 -14 0 -14 6 0 6 4 11 8 11 4 0 8 9 8 19 0 11 -4 17 -8 15 -4 -3 -8 -12 -8 -20 0 -22 -14 -16 -27 12 -10 21 -10 24 2 14 9 -8 15 -8 20 0 4 6 3 10 -2 9 -4 -1 -12 0 -18 1 -5 1 -15 3 -22 4 -13 1 -183 185 -183 198 0 5 10 3 23 -3 19 -10 20 -9 7 2 -8 8 -20 21 -27 29 -11 13 -12 13 -7 -2 3 -10 2 -18 -3 -18 -16 0 -66 58 -59 68 4 6 1 14 -5 18 -8 5 -9 3 -4 -6 6 -9 4 -11 -4 -6 -7 5 -10 14 -7 22 3 8 0 11 -8 8 -8 -3 -17 0 -21 6 -8 13 -7 778 1 791 3 5 -2 12 -10 15 -9 3 -13 10 -10 16 3 5 17 -2 31 -16 14 -14 22 -30 18 -36z m-1501 -24 c-7 18 -7 18 13 1 11 -10 27 -15 37 -11 10 4 16 1 16 -9 0 -8 11 -22 25 -31 18 -12 24 -23 20 -36 -3 -10 0 -22 6 -26 9 -5 10 -2 6 9 -4 11 -2 14 9 10 18 -7 18 -18 -1 -37 -10 -10 -12 -17 -4 -21 6 -4 8 -13 6 -20 -4 -8 3 -11 20 -9 30 3 38 10 24 19 -6 3 -11 1 -11 -6 0 -8 -4 -8 -15 1 -21 18 -19 35 3 19 15 -13 16 -12 3 4 -8 9 -10 21 -6 25 4 4 10 0 13 -8 3 -8 20 -30 38 -48 24 -23 31 -39 28 -57 -2 -13 0 -26 5 -29 4 -3 7 7 5 22 -2 24 4 20 62 -41 36 -38 62 -73 58 -79 -4 -6 -3 -8 3 -5 15 9 87 -69 78 -85 -5 -7 -4 -10 0 -5 9 8 65 -40 65 -56 0 -5 12 -18 26 -30 36 -28 134 -148 129 -157 -3 -4 3 -7 13 -6 10 0 16 -6 16 -16 -1 -10 2 -15 7 -12 5 3 9 -147 9 -353 0 -197 3 -376 7 -397 4 -27 3 -37 -5 -32 -8 4 -8 -3 -1 -26 5 -19 9 -209 9 -432 -1 -396 -1 -398 -21 -380 -12 11 -17 25 -13 38 4 17 3 18 -6 6 -9 -13 -18 -7 -55 35 -24 28 -43 57 -42 65 1 9 -5 14 -14 12 -19 -3 -73 63 -64 78 3 5 0 7 -7 5 -17 -7 -202 200 -193 215 3 5 0 8 -7 5 -17 -7 -212 211 -202 226 4 8 3 9 -5 5 -7 -4 -31 15 -62 48 -28 31 -56 53 -62 49 -5 -3 -7 -1 -4 4 4 6 7 188 7 406 1 217 5 409 10 426 5 17 6 29 2 27 -4 -2 -7 157 -7 354 0 344 1 358 18 342 17 -15 17 -15 11 4z m1609 -78 c3 -8 -4 -13 -18 -13 -18 0 -21 3 -13 13 6 6 14 12 18 12 4 0 10 -6 13 -12z m-2994 -795 c51 -53 90 -102 87 -109 -3 -7 0 -11 7 -8 16 6 111 -102 102 -116 -3 -5 0 -7 8 -5 8 4 69 -57 162 -162 82 -92 160 -181 174 -196 22 -24 23 -29 11 -38 -12 -9 -12 -10 3 -5 12 4 25 -2 38 -16 17 -22 18 -45 18 -433 l0 -410 -65 70 c-35 38 -62 75 -60 81 2 6 -2 11 -9 10 -18 -1 -387 405 -381 420 3 7 0 11 -7 8 -15 -5 -111 102 -103 115 3 5 0 8 -7 7 -6 0 -32 21 -57 48 l-45 49 -3 380 c-1 210 0 387 2 394 11 27 37 10 125 -84z m2848 60 c-4 -3 -7 0 -7 7 0 7 3 10 7 7 3 -4 3 -10 0 -14z m0 -700 c-4 -3 -7 0 -7 7 0 7 3 10 7 7 3 -4 3 -10 0 -14z m739 -10 c-8 -8 -36 5 -36 17 0 7 6 7 21 0 11 -7 18 -14 15 -17z m-756 -47 c0 -3 -5 -8 -12 -12 -7 -4 -8 -3 -4 4 7 12 16 16 16 8z m-1630 -160 c0 -3 -5 -8 -12 -12 -7 -4 -8 -3 -4 4 7 12 16 16 16 8z m1460 -30 c0 -3 -5 -8 -12 -12 -7 -4 -8 -3 -4 4 7 12 16 16 16 8z m-100 -110 c0 -3 -5 -8 -12 -12 -7 -4 -8 -3 -4 4 7 12 16 16 16 8z"/>
 <path d="M2195 3750 c3 -5 8 -10 11 -10 3 0 2 5 -1 10 -3 6 -8 10 -11 10 -3 0 -2 -4 1 -10z"/>
 <path d="M3760 3650 c0 -7 3 -10 7 -7 3 4 3 10 0 14 -4 3 -7 0 -7 -7z"/>
 <path d="M3955 3440 c-8 -12 12 -40 28 -40 6 0 3 6 -8 13 -10 8 -15 19 -11 25 4 7 5 12 2 12 -3 0 -8 -5 -11 -10z"/>
 <path d="M4000 3401 c0 -6 4 -13 10 -16 6 -3 7 1 4 9 -7 18 -14 21 -14 7z"/>
 <path d="M4020 3335 c0 -5 5 -17 10 -25 5 -8 10 -10 10 -5 0 6 -5 17 -10 25 -5 8 -10 11 -10 5z"/>
 <path d="M4064 3315 c-4 -9 -4 -19 0 -22 3 -4 6 2 6 13 0 16 2 17 10 4 6 -9 10 -10 10 -3 0 19 -20 26 -26 8z"/>
 <path d="M4010 3290 c0 -7 3 -10 7 -7 3 4 3 10 0 14 -4 3 -7 0 -7 -7z"/>
 <path d="M4145 3230 c2 -27 10 -33 12 -10 1 11 -2 22 -6 24 -4 3 -7 -4 -6 -14z"/>
 <path d="M4096 3212 c-2 -4 4 -8 14 -8 10 0 16 4 14 8 -3 4 -9 8 -14 8 -5 0 -11 -4 -14 -8z"/>
 <path d="M4177 3193 c-4 -3 -7 -11 -7 -17 0 -6 5 -5 12 2 6 6 9 14 7 17 -3 3 -9 2 -12 -2z"/>
 <path d="M4200 3173 c0 -7 5 -13 10 -13 6 0 19 -14 29 -31 10 -17 21 -27 24 -22 2 4 -11 24 -29 43 -19 19 -34 29 -34 23z"/>
 <path d="M4166 3132 c-2 -4 4 -8 14 -8 10 0 16 4 14 8 -3 4 -9 8 -14 8 -5 0 -11 -4 -14 -8z"/>
 <path d="M4247 3057 c-3 -7 3 -13 14 -13 13 0 15 3 7 13 -6 7 -12 13 -13 13 -2 0 -5 -6 -8 -13z"/>
 <path d="M3825 2870 c3 -5 8 -10 11 -10 3 0 2 5 -1 10 -3 6 -8 10 -11 10 -3 0 -2 -4 1 -10z"/>
 <path d="M3891 2786 c-9 -10 -8 -16 4 -26 8 -7 12 -17 8 -23 -4 -6 -1 -7 6 -3 9 6 9 12 -3 25 -12 13 -13 20 -4 29 7 7 9 12 6 12 -3 0 -11 -6 -17 -14z"/>
 <path d="M3932 2712 c2 -8 8 -13 13 -13 6 0 14 -7 18 -15 11 -19 23 -18 31 2 6 15 4 15 -11 3 -15 -12 -16 -12 -11 3 5 11 2 15 -10 13 -9 -1 -21 3 -25 9 -6 7 -7 7 -5 -2z"/>
 <path d="M4124 2498 c-4 -7 -4 -10 1 -6 4 4 14 0 21 -10 7 -9 14 -15 17 -12 2 3 -4 13 -13 23 -14 15 -20 16 -26 5z"/>
 <path d="M4209 2463 c-12 -16 -12 -17 2 -6 9 7 20 9 24 5 5 -4 5 -1 1 6 -9 16 -11 15 -27 -5z"/>
 <path d="M4214 2408 c-4 -7 -3 -8 4 -4 7 4 12 9 12 12 0 8 -9 4 -16 -8z"/>
 <path d="M4296 2363 c-6 -14 -5 -15 5 -6 7 7 10 15 7 18 -3 3 -9 -2 -12 -12z"/>
 <path d="M4300 2336 c0 -2 8 -10 18 -17 15 -13 16 -12 3 4 -13 16 -21 21 -21 13z"/>
 <path d="M4305 2300 c3 -5 8 -10 11 -10 3 0 2 5 -1 10 -3 6 -8 10 -11 10 -3 0 -2 -4 1 -10z"/>
 <path d="M4380 2250 c0 -7 3 -10 7 -7 3 4 3 10 0 14 -4 3 -7 0 -7 -7z"/>
 <path d="M2255 3670 c-3 -5 -1 -10 4 -10 6 0 11 5 11 10 0 6 -2 10 -4 10 -3 0 -8 -4 -11 -10z"/>
 <path d="M2300 3620 c0 -7 3 -10 7 -7 3 4 3 10 0 14 -4 3 -7 0 -7 -7z"/>
 <path d="M2245 3610 c3 -5 8 -10 11 -10 3 0 2 5 -1 10 -3 6 -8 10 -11 10 -3 0 -2 -4 1 -10z"/>
 <path d="M2404 3516 c1 -9 7 -21 13 -27 9 -9 11 -7 9 5 -1 9 -7 21 -13 27 -9 9 -11 7 -9 -5z"/>
 <path d="M2413 3455 c0 -8 4 -12 9 -9 5 3 6 10 3 15 -9 13 -12 11 -12 -6z"/>
 <path d="M2487 3421 c6 -7 9 -19 7 -26 -6 -15 12 -28 38 -30 14 -1 15 1 6 12 -8 10 -13 11 -18 2 -6 -8 -9 -8 -14 0 -4 6 -5 15 -2 20 3 5 -2 15 -12 22 -14 11 -15 11 -5 0z"/>
 <path d="M2570 3326 c0 -2 8 -10 18 -17 15 -13 16 -12 3 4 -13 16 -21 21 -21 13z"/>
 <path d="M2644 3218 c-4 -7 -3 -8 4 -4 7 4 12 9 12 12 0 8 -9 4 -16 -8z"/>
 <path d="M2667 3217 c-3 -8 0 -14 7 -14 7 0 13 6 13 14 0 7 -4 13 -8 13 -4 0 -9 -6 -12 -13z"/>
 <path d="M2730 3161 c0 -5 7 -12 16 -15 14 -5 15 -4 4 9 -14 17 -20 19 -20 6z"/>
 <path d="M2725 3130 c3 -5 8 -10 11 -10 3 0 2 5 -1 10 -3 6 -8 10 -11 10 -3 0 -2 -4 1 -10z"/>
 <path d="M2803 3068 c2 -7 10 -12 16 -10 6 1 11 -3 11 -10 0 -6 3 -8 6 -5 8 8 -14 37 -28 37 -5 0 -8 -6 -5 -12z"/>
 <path d="M2845 3020 c3 -5 8 -10 11 -10 2 0 4 5 4 10 0 6 -5 10 -11 10 -5 0 -7 -4 -4 -10z"/>
 <path d="M2211 2994 c0 -11 3 -14 6 -6 3 7 2 16 -1 19 -3 4 -6 -2 -5 -13z"/>
 <path d="M2830 3000 c0 -5 5 -10 11 -10 5 0 7 5 4 10 -3 6 -8 10 -11 10 -2 0 -4 -4 -4 -10z"/>
 <path d="M2860 2980 c0 -5 5 -10 11 -10 5 0 7 5 4 10 -3 6 -8 10 -11 10 -2 0 -4 -4 -4 -10z"/>
 <path d="M2810 2970 c0 -7 3 -10 7 -7 3 4 3 10 0 14 -4 3 -7 0 -7 -7z"/>
 <path d="M2305 2870 c3 -5 8 -10 11 -10 3 0 2 5 -1 10 -3 6 -8 10 -11 10 -3 0 -2 -4 1 -10z"/>
 <path d="M945 2670 c3 -5 8 -10 11 -10 3 0 2 5 -1 10 -3 6 -8 10 -11 10 -3 0 -2 -4 1 -10z"/>
 </g>
<g id="layer106" fill="#0b6786" stroke="none">
 <path d="M0 2560 l0 -2560 2560 0 2560 0 0 2560 0 2560 -2560 0 -2560 0 0 -2560z m2255 1142 c-4 -4 -13 1 -20 12 -8 10 -18 15 -24 12 -12 -8 -21 6 -27 39 -4 23 -1 22 37 -16 22 -22 38 -44 34 -47z m1460 28 c-3 -6 -10 -8 -14 -6 -8 6 -8 -30 1 -39 3 -3 11 2 19 12 9 11 10 14 2 9 -7 -4 -13 -3 -13 3 0 24 20 17 55 -19 38 -39 38 -40 20 -60 -10 -11 -16 -20 -14 -21 2 0 18 -2 36 -2 36 -2 65 -23 47 -35 -7 -5 -4 -14 10 -27 12 -11 18 -16 14 -10 -11 12 -10 25 1 25 5 0 24 -18 41 -40 28 -35 30 -43 19 -58 -13 -16 -12 -16 5 -2 17 13 20 13 24 1 3 -8 21 -29 40 -47 19 -17 32 -36 29 -41 -4 -6 0 -19 8 -29 8 -10 15 -14 15 -8 0 5 -6 16 -12 24 -17 19 18 -7 46 -34 18 -18 18 -20 2 -32 -16 -11 -16 -13 3 -19 12 -3 18 -11 15 -17 -5 -7 -2 -8 6 -3 10 6 10 11 -3 20 -9 7 -14 15 -11 18 9 8 75 -64 68 -74 -3 -5 1 -6 9 -3 9 3 30 -14 55 -46 32 -41 39 -56 32 -70 -11 -21 -4 -31 17 -23 12 5 12 7 1 14 -7 5 -8 9 -3 9 23 0 110 -94 100 -109 -4 -7 -20 6 -41 34 -39 50 -41 51 -41 30 0 -8 4 -12 8 -9 13 7 27 -28 24 -59 -2 -15 1 -25 5 -22 5 3 6 13 3 23 -5 12 1 10 22 -8 16 -14 25 -20 21 -13 -8 15 14 29 23 14 4 -6 8 -182 10 -391 2 -347 1 -380 -14 -380 -9 0 -14 4 -11 8 3 5 -1 9 -9 9 -8 0 -11 -5 -8 -10 3 -5 0 -7 -8 -5 -8 3 -13 17 -12 34 1 16 -1 21 -4 12 -2 -10 -8 -18 -13 -18 -12 0 -63 70 -56 77 3 4 -1 17 -9 30 -9 13 -13 27 -10 32 5 10 -25 25 -33 16 -3 -3 4 -15 16 -28 12 -13 22 -26 22 -30 0 -18 -20 -3 -59 43 -42 50 -43 51 -26 78 l16 27 -21 -25 -22 -25 -25 30 c-13 17 -38 48 -55 70 -27 34 -28 36 -6 17 17 -15 28 -20 33 -13 3 6 11 9 16 5 6 -4 6 -11 -2 -20 -10 -12 -9 -13 5 -8 9 3 16 10 16 15 0 5 0 12 0 16 1 10 -29 12 -35 2 -4 -5 -15 0 -27 10 -11 11 -26 17 -34 14 -8 -3 -14 0 -14 6 0 6 4 11 8 11 4 0 8 9 8 19 0 11 -4 17 -8 15 -4 -3 -8 -12 -8 -20 0 -22 -14 -16 -27 12 -10 21 -10 24 2 14 9 -8 15 -8 20 0 4 6 3 10 -2 9 -4 -1 -12 0 -18 1 -5 1 -15 3 -22 4 -13 1 -183 185 -183 198 0 5 10 3 23 -3 19 -10 20 -9 7 2 -8 8 -20 21 -27 29 -11 13 -12 13 -7 -2 3 -10 2 -18 -3 -18 -16 0 -66 58 -59 68 4 6 1 14 -5 18 -8 5 -9 3 -4 -6 6 -9 4 -11 -4 -6 -7 5 -10 14 -7 21 2 7 -3 12 -12 11 -15 -1 -18 -36 -23 -381 -3 -209 -4 -31 -1 395 2 426 6 778 8 782 3 5 -2 11 -10 14 -9 3 -13 10 -10 16 3 5 17 -2 31 -16 14 -14 22 -30 18 -36z m-1501 -24 c-7 18 -7 18 13 1 11 -10 27 -15 37 -11 10 4 16 1 16 -9 0 -8 11 -22 25 -31 18 -12 24 -23 20 -36 -3 -10 0 -22 6 -26 9 -5 10 -2 6 9 -4 11 -2 14 9 10 18 -7 18 -18 -1 -37 -10 -10 -12 -17 -4 -21 6 -4 8 -13 6 -20 -4 -8 3 -11 20 -9 30 3 38 10 24 19 -6 3 -11 1 -11 -6 0 -8 -4 -8 -15 1 -21 18 -19 35 3 19 15 -13 16 -12 3 4 -8 9 -10 21 -6 25 4 4 10 0 13 -8 3 -8 20 -30 38 -48 24 -23 31 -39 28 -57 -2 -13 0 -26 5 -29 4 -3 7 7 5 22 -2 24 4 20 62 -41 36 -38 62 -73 58 -79 -4 -6 -3 -8 3 -5 15 9 87 -69 78 -85 -5 -7 -4 -10 0 -5 9 8 65 -40 65 -56 0 -5 12 -18 26 -30 36 -28 134 -148 129 -157 -3 -4 3 -7 13 -6 10 0 16 -6 16 -16 -1 -10 2 -15 7 -12 5 3 9 -147 9 -353 0 -197 3 -376 7 -397 4 -28 3 -37 -5 -32 -8 5 -9 -1 -2 -21 10 -28 19 -844 10 -842 -3 0 -84 89 -180 197 -96 108 -262 292 -369 410 l-194 213 -29 -33 c-15 -18 -28 -28 -28 -22 0 6 11 21 25 34 l25 23 0 396 c0 218 4 411 9 429 6 18 7 30 3 28 -4 -2 -7 157 -7 354 0 344 1 358 18 342 17 -15 17 -15 11 4z m1609 -78 c3 -8 -4 -13 -18 -13 -18 0 -21 3 -13 13 6 6 14 12 18 12 4 0 10 -6 13 -12z m-3012 -775 c112 -117 350 -379 498 -548 l131 -149 0 -404 c0 -263 3 -401 10 -397 6 3 7 -1 4 -9 -3 -9 -8 -16 -10 -16 -2 0 -21 19 -42 43 -21 23 -130 143 -243 267 -112 124 -260 288 -329 364 l-125 139 -3 380 c-1 210 0 387 2 394 10 26 34 12 107 -64z m3605 -670 c-8 -8 -36 5 -36 17 0 7 6 7 21 0 11 -7 18 -14 15 -17z m-741 -12 c3 -5 1 -12 -5 -16 -5 -3 -10 1 -10 9 0 18 6 21 15 7z m-15 -35 c0 -2 -8 -10 -17 -17 -16 -13 -17 -12 -4 4 13 16 21 21 21 13z m-50 -59 c0 -2 -15 -16 -32 -33 l-33 -29 29 33 c28 30 36 37 36 29z m-1500 -10 c0 -2 -12 -14 -27 -28 l-28 -24 24 28 c23 25 31 32 31 24z m-60 -61 c0 -3 -5 -8 -12 -12 -7 -4 -8 -3 -4 4 7 12 16 16 16 8z m1445 -54 l-28 -27 24 31 c13 17 26 30 28 27 3 -2 -8 -16 -24 -31z m-1465 24 c0 -2 -8 -10 -17 -17 -16 -13 -17 -12 -4 4 13 16 21 21 21 13z m-60 -59 c0 -2 -10 -12 -22 -23 l-23 -19 19 23 c18 21 26 27 26 19z m1490 -1 c0 -2 -8 -10 -17 -17 -16 -13 -17 -12 -4 4 13 16 21 21 21 13z m-1560 -80 c0 -2 -8 -10 -17 -17 -16 -13 -17 -12 -4 4 13 16 21 21 21 13z m1490 1 c0 -2 -12 -14 -27 -28 l-28 -24 24 28 c23 25 31 32 31 24z m-80 -90 c0 -2 -12 -14 -27 -28 l-28 -24 24 28 c23 25 31 32 31 24z m-1590 -111 c0 -2 -8 -10 -17 -17 -16 -13 -17 -12 -4 4 13 16 21 21 21 13z m-110 -119 c0 -2 -10 -12 -22 -23 l-23 -19 19 23 c18 21 26 27 26 19z m1480 -11 c0 -2 -8 -10 -17 -17 -16 -13 -17 -12 -4 4 13 16 21 21 21 13z"/>
 <path d="M2195 3750 c3 -5 8 -10 11 -10 3 0 2 5 -1 10 -3 6 -8 10 -11 10 -3 0 -2 -4 1 -10z"/>
 <path d="M3760 3650 c0 -7 3 -10 7 -7 3 4 3 10 0 14 -4 3 -7 0 -7 -7z"/>
 <path d="M3955 3440 c-8 -12 12 -40 28 -40 6 0 3 6 -8 13 -10 8 -15 19 -11 25 4 7 5 12 2 12 -3 0 -8 -5 -11 -10z"/>
 <path d="M4000 3401 c0 -6 4 -13 10 -16 6 -3 7 1 4 9 -7 18 -14 21 -14 7z"/>
 <path d="M4020 3335 c0 -5 5 -17 10 -25 5 -8 10 -10 10 -5 0 6 -5 17 -10 25 -5 8 -10 11 -10 5z"/>
 <path d="M4064 3315 c-4 -9 -4 -19 0 -22 3 -4 6 2 6 13 0 16 2 17 10 4 6 -9 10 -10 10 -3 0 19 -20 26 -26 8z"/>
 <path d="M4010 3290 c0 -7 3 -10 7 -7 3 4 3 10 0 14 -4 3 -7 0 -7 -7z"/>
 <path d="M4145 3230 c2 -27 10 -33 12 -10 1 11 -2 22 -6 24 -4 3 -7 -4 -6 -14z"/>
 <path d="M4096 3212 c-2 -4 4 -8 14 -8 10 0 16 4 14 8 -3 4 -9 8 -14 8 -5 0 -11 -4 -14 -8z"/>
 <path d="M4177 3193 c-4 -3 -7 -11 -7 -17 0 -6 5 -5 12 2 6 6 9 14 7 17 -3 3 -9 2 -12 -2z"/>
 <path d="M4200 3173 c0 -7 5 -13 10 -13 6 0 19 -14 29 -31 10 -17 21 -27 24 -22 2 4 -11 24 -29 43 -19 19 -34 29 -34 23z"/>
 <path d="M4166 3132 c-2 -4 4 -8 14 -8 10 0 16 4 14 8 -3 4 -9 8 -14 8 -5 0 -11 -4 -14 -8z"/>
 <path d="M4247 3057 c-3 -7 3 -13 14 -13 13 0 15 3 7 13 -6 7 -12 13 -13 13 -2 0 -5 -6 -8 -13z"/>
 <path d="M3825 2870 c3 -5 8 -10 11 -10 3 0 2 5 -1 10 -3 6 -8 10 -11 10 -3 0 -2 -4 1 -10z"/>
 <path d="M3891 2786 c-9 -10 -8 -16 4 -26 8 -7 12 -17 8 -23 -4 -6 -1 -7 6 -3 9 6 9 12 -3 25 -12 13 -13 20 -4 29 7 7 9 12 6 12 -3 0 -11 -6 -17 -14z"/>
 <path d="M3932 2712 c2 -8 8 -13 13 -13 6 0 14 -7 18 -15 11 -19 23 -18 31 2 6 15 4 15 -11 3 -15 -12 -16 -12 -11 3 5 11 2 15 -10 13 -9 -1 -21 3 -25 9 -6 7 -7 7 -5 -2z"/>
 <path d="M4124 2498 c-4 -7 -4 -10 1 -6 4 4 14 0 21 -10 7 -9 14 -15 17 -12 2 3 -4 13 -13 23 -14 15 -20 16 -26 5z"/>
 <path d="M4209 2463 c-12 -16 -12 -17 2 -6 9 7 20 9 24 5 5 -4 5 -1 1 6 -9 16 -11 15 -27 -5z"/>
 <path d="M4214 2408 c-4 -7 -3 -8 4 -4 7 4 12 9 12 12 0 8 -9 4 -16 -8z"/>
 <path d="M4296 2363 c-6 -14 -5 -15 5 -6 7 7 10 15 7 18 -3 3 -9 -2 -12 -12z"/>
 <path d="M4300 2336 c0 -2 8 -10 18 -17 15 -13 16 -12 3 4 -13 16 -21 21 -21 13z"/>
 <path d="M4305 2300 c3 -5 8 -10 11 -10 3 0 2 5 -1 10 -3 6 -8 10 -11 10 -3 0 -2 -4 1 -10z"/>
 <path d="M4380 2250 c0 -7 3 -10 7 -7 3 4 3 10 0 14 -4 3 -7 0 -7 -7z"/>
 <path d="M2255 3670 c-3 -5 -1 -10 4 -10 6 0 11 5 11 10 0 6 -2 10 -4 10 -3 0 -8 -4 -11 -10z"/>
 <path d="M2300 3620 c0 -7 3 -10 7 -7 3 4 3 10 0 14 -4 3 -7 0 -7 -7z"/>
 <path d="M2245 3610 c3 -5 8 -10 11 -10 3 0 2 5 -1 10 -3 6 -8 10 -11 10 -3 0 -2 -4 1 -10z"/>
 <path d="M2404 3516 c1 -9 7 -21 13 -27 9 -9 11 -7 9 5 -1 9 -7 21 -13 27 -9 9 -11 7 -9 -5z"/>
 <path d="M2413 3455 c0 -8 4 -12 9 -9 5 3 6 10 3 15 -9 13 -12 11 -12 -6z"/>
 <path d="M2487 3421 c6 -7 9 -19 7 -26 -6 -15 12 -28 38 -30 14 -1 15 1 6 12 -8 10 -13 11 -18 2 -6 -8 -9 -8 -14 0 -4 6 -5 15 -2 20 3 5 -2 15 -12 22 -14 11 -15 11 -5 0z"/>
 <path d="M2570 3326 c0 -2 8 -10 18 -17 15 -13 16 -12 3 4 -13 16 -21 21 -21 13z"/>
 <path d="M2644 3218 c-4 -7 -3 -8 4 -4 7 4 12 9 12 12 0 8 -9 4 -16 -8z"/>
 <path d="M2667 3217 c-3 -8 0 -14 7 -14 7 0 13 6 13 14 0 7 -4 13 -8 13 -4 0 -9 -6 -12 -13z"/>
 <path d="M2730 3161 c0 -5 7 -12 16 -15 14 -5 15 -4 4 9 -14 17 -20 19 -20 6z"/>
 <path d="M2725 3130 c3 -5 8 -10 11 -10 3 0 2 5 -1 10 -3 6 -8 10 -11 10 -3 0 -2 -4 1 -10z"/>
 <path d="M2803 3068 c2 -7 10 -12 16 -10 6 1 11 -3 11 -10 0 -6 3 -8 6 -5 8 8 -14 37 -28 37 -5 0 -8 -6 -5 -12z"/>
 <path d="M2845 3020 c3 -5 8 -10 11 -10 2 0 4 5 4 10 0 6 -5 10 -11 10 -5 0 -7 -4 -4 -10z"/>
 <path d="M2211 2994 c0 -11 3 -14 6 -6 3 7 2 16 -1 19 -3 4 -6 -2 -5 -13z"/>
 <path d="M2830 3000 c0 -5 5 -10 11 -10 5 0 7 5 4 10 -3 6 -8 10 -11 10 -2 0 -4 -4 -4 -10z"/>
 <path d="M2860 2980 c0 -5 5 -10 11 -10 5 0 7 5 4 10 -3 6 -8 10 -11 10 -2 0 -4 -4 -4 -10z"/>
 <path d="M2810 2970 c0 -7 3 -10 7 -7 3 4 3 10 0 14 -4 3 -7 0 -7 -7z"/>
 <path d="M2305 2870 c3 -5 8 -10 11 -10 3 0 2 5 -1 10 -3 6 -8 10 -11 10 -3 0 -2 -4 1 -10z"/>
 </g>
<g id="layer107" fill="#334e97" stroke="none">
 <path d="M0 2560 l0 -2560 2560 0 2560 0 0 2560 0 2560 -2560 0 -2560 0 0 -2560z m2639 735 l290 -320 0 -807 c1 -443 4 -813 7 -822 15 -38 -21 -3 -186 182 -96 108 -262 292 -369 410 l-194 213 -29 -33 c-15 -18 -28 -29 -28 -24 0 6 11 22 25 36 l25 26 1 820 0 819 84 -90 c46 -49 214 -234 374 -410z m1328 175 c137 -151 295 -326 351 -388 l102 -112 0 -395 c0 -334 -2 -395 -14 -395 -8 0 -95 89 -193 197 -98 108 -245 271 -328 361 -82 91 -161 179 -175 196 l-25 31 -5 -390 c-4 -307 -6 -223 -8 397 -1 433 -2 791 -3 795 -4 24 4 25 25 3 13 -14 136 -149 273 -300z m-3156 -617 c112 -117 350 -379 498 -548 l131 -149 0 -404 c0 -263 3 -401 10 -397 6 3 7 -1 4 -9 -3 -9 -8 -16 -10 -16 -2 0 -21 19 -42 43 -21 23 -130 143 -243 267 -112 124 -260 288 -329 364 l-125 139 -3 380 c-1 210 0 387 2 394 10 26 34 12 107 -64z m2864 -682 c3 -5 1 -12 -5 -16 -5 -3 -10 1 -10 9 0 18 6 21 15 7z m-15 -35 c0 -2 -8 -10 -17 -17 -16 -13 -17 -12 -4 4 13 16 21 21 21 13z m-50 -59 c0 -2 -15 -16 -32 -33 l-33 -29 29 33 c28 30 36 37 36 29z m-1500 -10 c0 -2 -12 -14 -27 -28 l-28 -24 24 28 c23 25 31 32 31 24z m-60 -61 c0 -3 -5 -8 -12 -12 -7 -4 -8 -3 -4 4 7 12 16 16 16 8z m1445 -54 l-28 -27 24 31 c13 17 26 30 28 27 3 -2 -8 -16 -24 -31z m-1465 24 c0 -2 -8 -10 -17 -17 -16 -13 -17 -12 -4 4 13 16 21 21 21 13z m-60 -59 c0 -2 -10 -12 -22 -23 l-23 -19 19 23 c18 21 26 27 26 19z m1490 -1 c0 -2 -8 -10 -17 -17 -16 -13 -17 -12 -4 4 13 16 21 21 21 13z m-1560 -80 c0 -2 -8 -10 -17 -17 -16 -13 -17 -12 -4 4 13 16 21 21 21 13z m1490 1 c0 -2 -12 -14 -27 -28 l-28 -24 24 28 c23 25 31 32 31 24z m-80 -90 c0 -2 -12 -14 -27 -28 l-28 -24 24 28 c23 25 31 32 31 24z m-1590 -111 c0 -2 -8 -10 -17 -17 -16 -13 -17 -12 -4 4 13 16 21 21 21 13z m-110 -119 c0 -2 -10 -12 -22 -23 l-23 -19 19 23 c18 21 26 27 26 19z m1480 -11 c0 -2 -8 -10 -17 -17 -16 -13 -17 -12 -4 4 13 16 21 21 21 13z"/>
 </g>
<g id="layer108" fill="#365ab2" stroke="none">
 <path d="M0 2560 l0 -2560 2560 0 2560 0 0 2560 0 2560 -2560 0 -2560 0 0 -2560z m2432 962 c128 -141 292 -323 365 -403 l133 -147 0 -813 c1 -710 3 -812 15 -795 8 11 17 17 21 14 3 -4 -4 -16 -16 -28 -12 -12 -23 -20 -24 -18 -1 2 -85 95 -186 208 -371 413 -543 600 -552 600 -11 0 -9 2 -114 -115 -45 -49 -102 -112 -128 -140 -26 -27 -59 -65 -73 -83 -14 -18 -28 -30 -31 -28 -2 3 16 29 42 59 25 30 42 58 38 62 -4 5 -2 5 4 2 6 -3 47 33 91 81 111 120 134 148 125 157 -4 5 -2 5 5 1 30 -17 34 36 33 422 -2 1032 0 1233 10 1227 5 -3 114 -122 242 -263z m1535 -52 c137 -151 295 -326 351 -388 l102 -112 0 -395 c0 -334 -2 -395 -14 -395 -13 0 -102 96 -480 514 -60 67 -140 154 -178 195 l-68 75 0 -400 0 -400 -24 -33 c-14 -18 -44 -54 -68 -80 -24 -25 -113 -122 -197 -216 -85 -93 -174 -192 -200 -220 -25 -27 -67 -74 -93 -103 -27 -29 -48 -49 -48 -46 0 7 39 58 68 87 9 11 16 24 14 30 -2 7 0 9 4 5 10 -11 96 81 88 94 -4 6 -2 8 4 4 13 -8 114 103 105 117 -3 6 -1 7 4 4 6 -4 27 11 48 34 29 32 34 43 25 54 -10 11 -8 13 9 10 15 -3 43 22 117 103 53 59 103 116 110 127 10 16 14 185 19 830 3 446 6 814 5 820 0 12 4 8 297 -315z m-3156 -617 c112 -117 350 -379 498 -548 l131 -149 1 -361 c1 -198 0 -368 -1 -378 -1 -10 4 -25 11 -33 10 -13 18 -10 53 23 34 31 32 29 -9 -17 -27 -30 -51 -56 -52 -58 0 -2 -19 16 -40 40 -22 24 -131 144 -244 268 -112 124 -260 288 -329 364 l-125 139 -3 380 c-1 210 0 387 2 394 10 26 34 12 107 -64z m2799 33 c0 -3 -5 -8 -12 -12 -7 -4 -8 -3 -4 4 7 12 16 16 16 8z m-170 -190 c0 -3 -5 -8 -12 -12 -7 -4 -8 -3 -4 4 7 12 16 16 16 8z m-353 -403 c-4 -3 -10 -3 -14 0 -3 4 0 7 7 7 7 0 10 -3 7 -7z m550 -70 c-4 -3 -7 0 -7 7 0 7 3 10 7 7 3 -4 3 -10 0 -14z m-2 -73 c3 -6 -1 -7 -9 -4 -18 7 -21 14 -7 14 6 0 13 -4 16 -10z m-108 -127 c-4 -3 -7 0 -7 7 0 7 3 10 7 7 3 -4 3 -10 0 -14z m-62 -53 c3 -5 4 -10 1 -10 -3 0 -8 5 -11 10 -3 6 -4 10 -1 10 3 0 8 -4 11 -10z m-148 -145 c0 -8 -4 -12 -9 -9 -5 3 -6 10 -3 15 9 13 12 11 12 -6z m-1487 -68 c0 -2 -17 -19 -37 -38 l-38 -34 34 38 c33 34 41 42 41 34z m-115 -125 l-39 -37 35 41 c19 22 36 39 39 37 2 -2 -13 -20 -35 -41z m-52 -53 c-8 -8 -13 -7 -18 2 -5 8 -4 10 3 5 7 -4 12 -2 12 5 0 7 3 9 7 6 4 -4 2 -12 -4 -18z m-23 -32 c0 -1 -24 -25 -52 -52 l-53 -50 50 53 c46 48 55 57 55 49z m-83 -54 c-4 -3 -7 0 -7 7 0 7 3 10 7 7 3 -4 3 -10 0 -14z m1473 -56 c0 -2 -12 -14 -27 -28 l-28 -24 24 28 c23 25 31 32 31 24z m-1555 -27 c3 -5 4 -10 1 -10 -3 0 -8 5 -11 10 -3 6 -4 10 -1 10 3 0 8 -4 11 -10z"/>
 <path d="M1440 1364 c0 -8 5 -12 10 -9 6 4 8 11 5 16 -9 14 -15 11 -15 -7z"/>
 </g>
<g id="layer109" fill="#3f62c6" stroke="none">
 <path d="M0 2560 l0 -2560 2560 0 2560 0 0 2560 0 2560 -2560 0 -2560 0 0 -2560z m2639 735 l290 -320 0 -407 c1 -240 5 -408 10 -408 5 0 11 4 13 9 2 6 30 39 63 74 33 35 121 132 194 216 74 84 143 157 153 162 10 5 18 14 18 20 0 6 44 58 97 117 54 59 111 122 128 141 16 19 38 41 48 50 16 15 17 46 17 421 -1 223 2 407 5 410 3 3 108 -108 233 -246 125 -138 291 -321 370 -407 l142 -157 0 -395 c0 -334 -2 -395 -14 -395 -13 0 -102 96 -480 514 -60 67 -140 154 -178 195 l-68 75 0 -401 0 -401 -42 -54 c-22 -29 -43 -55 -44 -57 -2 -2 -12 2 -21 10 -16 13 -17 12 -4 -3 12 -16 7 -25 -45 -80 -32 -35 -65 -62 -74 -61 -8 1 -24 -11 -34 -25 l-19 -27 28 25 c23 20 26 21 17 5 -6 -11 -27 -38 -47 -60 -35 -39 -36 -39 -50 -21 -8 11 -15 15 -15 10 0 -6 5 -15 11 -21 9 -9 4 -21 -21 -50 -117 -134 -156 -173 -169 -170 -9 1 -16 -5 -16 -15 0 -10 -16 -35 -35 -55 -20 -21 -60 -66 -90 -101 -29 -34 -59 -61 -66 -58 -8 3 -11 -1 -7 -10 13 -35 -21 -2 -156 149 -352 396 -585 647 -597 647 -8 0 -14 5 -14 10 0 6 -5 10 -12 10 -9 0 -9 -3 0 -12 16 -16 15 -31 -2 -25 -7 3 -13 0 -12 -8 2 -20 -175 -215 -193 -213 -9 2 -16 -4 -16 -12 0 -29 -41 -70 -65 -65 -18 3 -20 2 -10 -10 10 -12 1 -27 -48 -82 -79 -89 -125 -133 -117 -110 4 9 11 17 15 17 4 0 11 7 14 15 4 13 1 12 -18 -2 -15 -11 -22 -26 -20 -39 4 -20 -58 -92 -81 -94 -5 -1 -9 -8 -7 -16 4 -19 -7 -18 -32 4 -21 17 -21 17 -2 -6 23 -27 16 -38 -16 -22 -21 10 -22 10 -4 -4 17 -14 17 -17 -19 -61 -21 -25 -44 -44 -50 -41 -17 6 -35 -13 -28 -30 9 -25 -6 -15 -45 28 -21 24 -130 144 -243 268 -112 124 -260 288 -329 364 l-125 139 -3 389 c-2 355 -1 389 14 395 12 4 38 -16 93 -73 109 -113 346 -374 500 -549 73 -82 136 -151 141 -153 6 -2 10 2 10 9 0 7 11 25 25 39 14 14 73 79 132 145 58 66 141 158 183 205 42 47 142 157 221 245 79 88 147 162 151 163 5 2 8 191 9 420 l0 417 84 -90 c46 -49 214 -234 374 -410z m-1169 -1929 c0 -3 -5 -8 -12 -12 -7 -4 -8 -3 -4 4 7 12 16 16 16 8z"/>
 <path d="M3650 2920 c0 -7 3 -10 7 -7 3 4 3 10 0 14 -4 3 -7 0 -7 -7z"/>
 <path d="M3643 2883 c4 -3 10 -3 14 0 3 4 0 7 -7 7 -7 0 -10 -3 -7 -7z"/>
 <path d="M3555 2810 c3 -5 8 -10 11 -10 3 0 2 5 -1 10 -3 6 -8 10 -11 10 -3 0 -2 -4 1 -10z"/>
 <path d="M3620 2230 c0 -7 3 -10 7 -7 3 4 3 10 0 14 -4 3 -7 0 -7 -7z"/>
 <path d="M3646 2163 c-4 -18 -15 -38 -24 -44 -13 -7 -13 -9 -2 -6 18 4 43 52 37 70 -2 7 -7 -3 -11 -20z"/>
 <path d="M2084 2148 c-4 -7 -3 -8 4 -4 7 4 12 9 12 12 0 8 -9 4 -16 -8z"/>
 <path d="M3605 2150 c3 -5 8 -10 11 -10 3 0 2 5 -1 10 -3 6 -8 10 -11 10 -3 0 -2 -4 1 -10z"/>
 <path d="M2099 2133 c-12 -16 -12 -17 2 -6 9 7 20 9 24 5 5 -4 5 -1 1 6 -9 16 -11 15 -27 -5z"/>
 <path d="M2104 2108 c-4 -7 -3 -8 4 -4 12 7 16 16 8 16 -3 0 -8 -5 -12 -12z"/>
 <path d="M2045 2070 c3 -5 8 -10 11 -10 3 0 2 5 -1 10 -3 6 -8 10 -11 10 -3 0 -2 -4 1 -10z"/>
 <path d="M2064 2048 l-19 -23 23 19 c21 18 27 26 19 26 -2 0 -12 -10 -23 -22z"/>
 <path d="M3533 2033 c4 -3 10 -3 14 0 3 4 0 7 -7 7 -7 0 -10 -3 -7 -7z"/>
 <path d="M2020 2000 c-9 -6 -10 -10 -3 -10 6 0 15 5 18 10 8 12 4 12 -15 0z"/>
 <path d="M3509 1993 c-13 -16 -12 -17 4 -4 16 13 21 21 13 21 -2 0 -10 -8 -17 -17z"/>
 <path d="M3444 1978 c-4 -7 -3 -8 4 -4 12 7 16 16 8 16 -3 0 -8 -5 -12 -12z"/>
 <path d="M3480 1970 c0 -7 3 -10 7 -7 3 4 3 10 0 14 -4 3 -7 0 -7 -7z"/>
 <path d="M1970 1955 c-7 -9 -11 -17 -9 -20 3 -2 10 5 17 15 14 24 10 26 -8 5z"/>
 <path d="M1905 1910 c3 -5 8 -10 11 -10 3 0 2 5 -1 10 -3 6 -8 10 -11 10 -3 0 -2 -4 1 -10z"/>
 <path d="M3369 1896 c-9 -19 -9 -19 4 -4 8 10 16 15 19 12 4 -3 8 -1 12 4 3 5 -2 9 -10 9 -8 0 -20 -10 -25 -21z"/>
 <path d="M1886 1853 c-6 -14 -5 -15 5 -6 7 7 10 15 7 18 -3 3 -9 -2 -12 -12z"/>
 <path d="M3364 1838 c-4 -7 -3 -8 4 -4 12 7 16 16 8 16 -3 0 -8 -5 -12 -12z"/>
 <path d="M3306 1821 c-3 -5 2 -15 12 -22 15 -12 16 -12 5 2 -7 9 -10 19 -6 22 3 4 4 7 0 7 -3 0 -8 -4 -11 -9z"/>
 <path d="M1840 1800 c0 -7 3 -10 7 -7 3 4 3 10 0 14 -4 3 -7 0 -7 -7z"/>
 <path d="M3303 1775 c0 -8 4 -12 9 -9 5 3 6 10 3 15 -9 13 -12 11 -12 -6z"/>
 <path d="M1764 1748 c-4 -7 -3 -8 4 -4 12 7 16 16 8 16 -3 0 -8 -5 -12 -12z"/>
 <path d="M3274 1738 c-4 -7 -3 -8 4 -4 12 7 16 16 8 16 -3 0 -8 -5 -12 -12z"/>
 <path d="M3244 1708 c-4 -7 -3 -8 4 -4 12 7 16 16 8 16 -3 0 -8 -5 -12 -12z"/>
 <path d="M3214 1668 l-19 -23 23 19 c12 11 22 21 22 23 0 8 -8 2 -26 -19z"/>
 <path d="M1685 1670 c3 -5 8 -10 11 -10 3 0 2 5 -1 10 -3 6 -8 10 -11 10 -3 0 -2 -4 1 -10z"/>
 <path d="M3165 1629 c-11 -17 1 -21 15 -4 8 9 8 15 2 15 -6 0 -14 -5 -17 -11z"/>
 <path d="M1615 1590 c3 -5 8 -10 11 -10 3 0 2 5 -1 10 -3 6 -8 10 -11 10 -3 0 -2 -4 1 -10z"/>
 <path d="M3100 1580 c0 -7 3 -10 7 -7 3 4 3 10 0 14 -4 3 -7 0 -7 -7z"/>
 <path d="M1634 1568 c-4 -7 -3 -8 4 -4 12 7 16 16 8 16 -3 0 -8 -5 -12 -12z"/>
 <path d="M3084 1538 c-4 -7 -3 -8 4 -4 12 7 16 16 8 16 -3 0 -8 -5 -12 -12z"/>
 <path d="M3066 1503 c-6 -15 -8 -15 -16 -3 -7 11 -9 9 -7 -8 1 -22 1 -22 21 -2 11 11 17 22 14 25 -3 3 -9 -2 -12 -12z"/>
 <path d="M2964 1428 c-4 -7 -3 -8 4 -4 7 4 12 9 12 12 0 8 -9 4 -16 -8z"/>
 <path d="M1444 1408 c-4 -7 -3 -8 4 -4 12 7 16 16 8 16 -3 0 -8 -5 -12 -12z"/>
 <path d="M2940 1411 c0 -10 19 -25 25 -20 1 2 -3 10 -11 17 -8 7 -14 8 -14 3z"/>
 <path d="M1474 1398 c-4 -7 -3 -8 4 -4 7 4 12 9 12 12 0 8 -9 4 -16 -8z"/>
 </g>
<g id="layer110" fill="#26bcdf" stroke="none">
 <path d="M0 2560 l0 -2560 2560 0 2560 0 0 2560 0 2560 -2560 0 -2560 0 0 -2560z m2639 735 l290 -320 0 -407 c1 -240 5 -408 10 -408 5 0 11 4 13 9 3 9 346 395 463 521 39 41 104 113 145 159 41 46 83 91 93 100 16 15 17 45 17 421 -1 223 2 407 5 410 3 3 108 -108 233 -246 125 -138 291 -321 370 -407 l142 -157 0 -395 c0 -334 -2 -395 -14 -395 -13 0 -102 96 -480 514 -60 67 -140 154 -178 195 l-68 75 0 -400 c0 -461 12 -405 -120 -549 -127 -138 -168 -183 -404 -443 -121 -133 -222 -242 -225 -241 -3 0 -71 73 -150 162 -294 330 -584 647 -591 647 -5 0 -156 -163 -336 -362 -181 -200 -347 -383 -370 -407 l-41 -44 -40 44 c-22 24 -131 145 -244 269 -112 124 -260 288 -329 364 l-125 139 -3 389 c-2 355 -1 389 14 395 12 4 38 -16 93 -73 107 -111 345 -373 496 -544 70 -80 130 -146 134 -148 5 -1 86 84 182 190 95 106 176 195 179 198 3 3 86 95 185 205 99 110 183 202 187 203 5 2 8 191 9 420 l0 417 84 -90 c46 -49 214 -234 374 -410z"/>
 </g>
<g id="layer111" fill="#20c4df" stroke="none">
 <path d="M0 2560 l0 -2560 2560 0 2560 0 0 2560 0 2560 -2560 0 -2560 0 0 -2560z m2609 768 c172 -192 316 -348 319 -348 3 0 14 8 25 17 18 17 19 17 33 -2 8 -10 14 -14 14 -8 0 7 -4 15 -10 18 -18 11 -11 22 49 87 32 34 94 103 136 151 45 50 84 86 91 83 8 -3 11 0 8 8 -5 12 32 53 44 49 4 -2 7 3 7 11 0 21 135 167 147 160 7 -4 8 -2 4 4 -4 7 36 58 95 122 l102 111 22 -23 c13 -13 135 -147 272 -298 137 -151 295 -326 351 -388 l102 -112 0 -395 c0 -334 -2 -395 -14 -395 -13 0 -102 96 -480 514 -60 67 -140 154 -178 195 l-68 75 0 -400 c0 -461 12 -405 -120 -549 -127 -138 -168 -183 -404 -443 -121 -133 -222 -242 -225 -241 -3 0 -71 73 -150 162 -294 330 -584 647 -591 647 -5 0 -156 -163 -336 -362 -181 -200 -347 -383 -370 -407 l-41 -44 -40 44 c-22 24 -131 145 -244 269 -112 124 -260 288 -329 364 l-125 139 -3 389 c-2 355 -1 389 14 395 12 4 38 -16 93 -73 109 -113 347 -375 497 -546 l129 -147 5 409 5 409 32 33 c18 18 65 70 105 116 43 49 78 80 86 77 7 -2 10 0 7 5 -8 14 47 81 62 76 7 -3 10 1 6 10 -7 20 7 18 24 -3 13 -16 13 -16 3 5 -13 27 -6 42 12 24 7 -7 16 -12 22 -12 5 0 2 6 -9 13 -19 14 -12 43 7 31 7 -4 8 -2 4 5 -8 13 78 113 88 103 3 -3 6 0 6 7 0 7 5 9 12 5 7 -4 8 -3 4 5 -5 7 26 49 80 109 48 53 92 101 96 107 5 5 13 4 20 -3 7 -7 16 -12 22 -12 5 0 1 6 -10 14 -18 14 -18 16 21 56 l40 41 55 -58 c31 -32 196 -214 369 -405z"/>
 <path d="M3646 3717 c3 -10 9 -15 12 -12 3 3 0 11 -7 18 -10 9 -11 8 -5 -6z"/>
 <path d="M2150 3700 c0 -7 3 -10 7 -7 3 4 3 10 0 14 -4 3 -7 0 -7 -7z"/>
 <path d="M3623 3640 c0 -25 2 -35 4 -22 2 12 2 32 0 45 -2 12 -4 2 -4 -23z"/>
 <path d="M3543 3603 c4 -3 10 -3 14 0 3 4 0 7 -7 7 -7 0 -10 -3 -7 -7z"/>
 <path d="M3654 3320 c0 -157 2 -221 3 -142 2 78 2 206 0 285 -1 78 -3 14 -3 -143z"/>
 <path d="M2065 3530 c-3 -5 -1 -10 4 -10 6 0 11 5 11 10 0 6 -2 10 -4 10 -3 0 -8 -4 -11 -10z"/>
 <path d="M3465 3530 c3 -5 8 -10 11 -10 3 0 2 5 -1 10 -3 6 -8 10 -11 10 -3 0 -2 -4 1 -10z"/>
 <path d="M2160 3480 c0 -25 4 -39 10 -35 6 3 10 19 10 35 0 16 -4 32 -10 35 -6 4 -10 -10 -10 -35z"/>
 <path d="M3623 3440 c0 -47 2 -66 4 -42 2 23 2 61 0 85 -2 23 -4 4 -4 -43z"/>
 <path d="M1935 3490 c-3 -5 -2 -10 4 -10 5 0 13 5 16 10 3 6 2 10 -4 10 -5 0 -13 -4 -16 -10z"/>
 <path d="M1974 3459 c-19 -22 -19 -22 4 -8 12 8 22 17 22 21 0 12 -6 9 -26 -13z"/>
 <path d="M1914 3438 c-4 -7 -3 -8 4 -4 12 7 16 16 8 16 -3 0 -8 -5 -12 -12z"/>
 <path d="M3383 3443 c4 -3 10 -3 14 0 3 4 0 7 -7 7 -7 0 -10 -3 -7 -7z"/>
 <path d="M1870 3414 c0 -8 5 -12 10 -9 6 3 10 10 10 16 0 5 -4 9 -10 9 -5 0 -10 -7 -10 -16z"/>
 <path d="M3350 3410 c0 -7 3 -10 7 -7 3 4 3 10 0 14 -4 3 -7 0 -7 -7z"/>
 <path d="M2160 3321 c0 -22 5 -43 10 -46 6 -4 10 10 10 34 0 22 -4 43 -10 46 -6 4 -10 -10 -10 -34z"/>
 <path d="M1813 3283 c4 -3 10 -3 14 0 3 4 0 7 -7 7 -7 0 -10 -3 -7 -7z"/>
 <path d="M3624 3160 c0 -69 1 -97 3 -62 2 34 2 90 0 125 -2 34 -3 6 -3 -63z"/>
 <path d="M3230 3250 c-13 -8 -12 -10 3 -10 9 0 17 5 17 10 0 12 -1 12 -20 0z"/>
 <path d="M1694 3228 c-4 -7 -3 -8 4 -4 12 7 16 16 8 16 -3 0 -8 -5 -12 -12z"/>
 <path d="M1725 3219 c-4 -6 -5 -12 -2 -15 2 -3 7 2 10 11 7 17 1 20 -8 4z"/>
 <path d="M1750 3210 c0 -7 3 -10 7 -7 3 4 3 10 0 14 -4 3 -7 0 -7 -7z"/>
 <path d="M3140 3175 c-10 -12 -10 -15 4 -15 9 0 16 7 16 15 0 8 -2 15 -4 15 -2 0 -9 -7 -16 -15z"/>
 <path d="M1645 3170 c-3 -5 -1 -10 4 -10 6 0 11 5 11 10 0 6 -2 10 -4 10 -3 0 -8 -4 -11 -10z"/>
 <path d="M3190 3150 c0 -7 3 -10 7 -7 3 4 3 10 0 14 -4 3 -7 0 -7 -7z"/>
 <path d="M1670 3140 c0 -7 3 -10 7 -7 3 4 3 10 0 14 -4 3 -7 0 -7 -7z"/>
 <path d="M3164 3128 c-4 -7 -3 -8 4 -4 12 7 16 16 8 16 -3 0 -8 -5 -12 -12z"/>
 <path d="M3060 3090 c-13 -8 -12 -10 3 -10 9 0 17 5 17 10 0 12 -1 12 -20 0z"/>
 <path d="M3651 3014 c0 -11 3 -14 6 -6 3 7 2 16 -1 19 -3 4 -6 -2 -5 -13z"/>
 <path d="M3020 3010 c0 -7 3 -10 7 -7 3 4 3 10 0 14 -4 3 -7 0 -7 -7z"/>
 <path d="M2161 2994 c0 -11 3 -14 6 -6 3 7 2 16 -1 19 -3 4 -6 -2 -5 -13z"/>
 <path d="M1504 2988 c-4 -7 -3 -8 4 -4 12 7 16 16 8 16 -3 0 -8 -5 -12 -12z"/>
 <path d="M3610 2985 c0 -8 5 -15 10 -15 6 0 10 7 10 15 0 8 -4 15 -10 15 -5 0 -10 -7 -10 -15z"/>
 <path d="M2952 2970 c-9 -15 -12 -111 -12 -380 0 -198 3 -360 8 -360 4 0 7 165 7 367 0 283 3 367 12 366 7 -2 10 4 7 12 -8 19 -7 19 -22 -5z"/>
 <path d="M3013 2963 c4 -3 10 -3 14 0 3 4 0 7 -7 7 -7 0 -10 -3 -7 -7z"/>
 <path d="M2116 2947 c3 -10 9 -15 12 -12 3 3 0 11 -7 18 -10 9 -11 8 -5 -6z"/>
 <path d="M2074 2878 c-4 -7 -3 -8 4 -4 12 7 16 16 8 16 -3 0 -8 -5 -12 -12z"/>
 <path d="M3554 2868 c-4 -7 -3 -8 4 -4 7 4 12 9 12 12 0 8 -9 4 -16 -8z"/>
 <path d="M2013 2853 c4 -3 10 -3 14 0 3 4 0 7 -7 7 -7 0 -10 -3 -7 -7z"/>
 <path d="M3535 2840 c3 -5 8 -10 11 -10 3 0 2 5 -1 10 -3 6 -8 10 -11 10 -3 0 -2 -4 1 -10z"/>
 <path d="M1948 2793 c7 -3 16 -2 19 1 4 3 -2 6 -13 5 -11 0 -14 -3 -6 -6z"/>
 <path d="M3473 2773 c4 -3 10 -3 14 0 3 4 0 7 -7 7 -7 0 -10 -3 -7 -7z"/>
 <path d="M3440 2761 c0 -6 4 -13 10 -16 6 -3 7 1 4 9 -7 18 -14 21 -14 7z"/>
 <path d="M1953 2753 c4 -3 10 -3 14 0 3 4 0 7 -7 7 -7 0 -10 -3 -7 -7z"/>
 <path d="M1920 2715 c-19 -22 -8 -25 13 -3 9 10 13 18 8 18 -5 0 -14 -7 -21 -15z"/>
 <path d="M3390 2710 c-9 -6 -10 -10 -3 -10 6 0 15 5 18 10 8 12 4 12 -15 0z"/>
 <path d="M1863 2693 c4 -3 10 -3 14 0 3 4 0 7 -7 7 -7 0 -10 -3 -7 -7z"/>
 <path d="M3390 2679 c0 -5 5 -7 10 -4 6 3 10 8 10 11 0 2 -4 4 -10 4 -5 0 -10 -5 -10 -11z"/>
 <path d="M1783 2633 c4 -3 10 -3 14 0 3 4 0 7 -7 7 -7 0 -10 -3 -7 -7z"/>
 <path d="M3286 2631 c-8 -12 4 -41 16 -41 6 0 5 6 -2 15 -6 8 -9 19 -5 25 3 5 4 10 1 10 -3 0 -7 -4 -10 -9z"/>
 <path d="M3310 2620 c0 -7 3 -10 7 -7 3 4 3 10 0 14 -4 3 -7 0 -7 -7z"/>
 <path d="M1810 2600 c-8 -5 -12 -12 -9 -15 4 -3 12 1 19 10 14 17 11 19 -10 5z"/>
 <path d="M3276 2563 c-6 -14 -5 -15 5 -6 7 7 10 15 7 18 -3 3 -9 -2 -12 -12z"/>
 <path d="M1703 2553 c4 -3 10 -3 14 0 3 4 0 7 -7 7 -7 0 -10 -3 -7 -7z"/>
 <path d="M1771 2543 c-7 -8 -10 -17 -7 -20 9 -9 29 13 25 25 -2 6 -10 3 -18 -5z"/>
 <path d="M3241 2527 c-13 -21 -12 -21 5 -5 10 10 16 20 13 22 -3 3 -11 -5 -18 -17z"/>
 <path d="M1680 2529 c0 -5 5 -7 10 -4 6 3 10 8 10 11 0 2 -4 4 -10 4 -5 0 -10 -5 -10 -11z"/>
 <path d="M3213 2533 c4 -3 10 -3 14 0 3 4 0 7 -7 7 -7 0 -10 -3 -7 -7z"/>
 <path d="M1720 2503 c0 -10 4 -14 8 -8 4 6 11 13 16 18 5 4 2 7 -7 7 -10 0 -17 -8 -17 -17z"/>
 <path d="M3200 2510 c0 -7 3 -10 7 -7 3 4 3 10 0 14 -4 3 -7 0 -7 -7z"/>
 <path d="M1680 2483 c0 -6 8 -17 18 -24 16 -13 16 -13 2 6 -8 11 -16 22 -17 24 -2 2 -3 0 -3 -6z"/>
 <path d="M3123 2453 c4 -3 10 -3 14 0 3 4 0 7 -7 7 -7 0 -10 -3 -7 -7z"/>
 <path d="M1600 2440 c0 -7 3 -10 7 -7 3 4 3 10 0 14 -4 3 -7 0 -7 -7z"/>
 <path d="M3155 2440 c-3 -5 -1 -10 4 -10 6 0 11 5 11 10 0 6 -2 10 -4 10 -3 0 -8 -4 -11 -10z"/>
 <path d="M3134 2408 c-4 -7 -3 -8 4 -4 7 4 12 9 12 12 0 8 -9 4 -16 -8z"/>
 <path d="M1615 2401 c-3 -5 -2 -12 3 -15 5 -3 9 1 9 9 0 17 -3 19 -12 6z"/>
 <path d="M3060 2371 c0 -5 7 -11 14 -14 10 -4 13 -1 9 9 -6 15 -23 19 -23 5z"/>
 <path d="M3060 2320 c0 -5 5 -10 11 -10 5 0 7 5 4 10 -3 6 -8 10 -11 10 -2 0 -4 -4 -4 -10z"/>
 <path d="M2983 2313 c4 -3 10 -3 14 0 3 4 0 7 -7 7 -7 0 -10 -3 -7 -7z"/>
 <path d="M1560 2300 c0 -7 3 -10 7 -7 3 4 3 10 0 14 -4 3 -7 0 -7 -7z"/>
 <path d="M3040 2300 c0 -7 3 -10 7 -7 3 4 3 10 0 14 -4 3 -7 0 -7 -7z"/>
 <path d="M2960 2270 c0 -7 3 -10 7 -7 3 4 3 10 0 14 -4 3 -7 0 -7 -7z"/>
 <path d="M1472 2217 c-24 -25 -28 -37 -12 -37 6 0 9 6 8 13 -2 6 2 11 8 10 7 -1 14 7 17 17 6 25 5 25 -21 -3z"/>
 <path d="M2967 2220 c-8 -11 -17 -17 -20 -13 -4 3 -7 1 -7 -5 0 -7 3 -12 8 -12 13 0 52 30 52 41 0 16 -18 10 -33 -11z"/>
 </g>
<g id="layer112" fill="#ffffff" stroke="none">
 <path d="M0 2560 l0 -2560 2560 0 2560 0 0 2560 0 2560 -2560 0 -2560 0 0 -2560z m2609 768 c172 -192 317 -348 321 -348 4 0 84 84 177 188 93 103 235 259 314 347 79 88 169 186 199 218 l55 58 265 -292 c146 -161 313 -346 373 -411 l107 -119 0 -394 c0 -334 -2 -395 -14 -395 -13 0 -102 96 -480 514 -60 67 -140 154 -178 195 l-68 75 0 -400 c0 -461 12 -405 -120 -549 -127 -138 -168 -183 -404 -443 -121 -133 -222 -242 -225 -241 -3 0 -71 73 -150 162 -294 330 -584 647 -591 647 -5 0 -156 -163 -336 -362 -181 -200 -347 -383 -370 -407 l-41 -44 -40 44 c-22 24 -131 145 -244 269 -112 124 -260 288 -329 364 l-125 139 -3 389 c-2 355 -1 389 14 395 12 4 38 -16 93 -73 109 -113 347 -375 497 -546 l129 -147 5 409 5 409 36 38 c19 21 102 112 184 203 186 207 283 315 415 459 l104 113 55 -58 c31 -33 197 -215 370 -406z"/>
 </g>

</svg>